<?xml version="1.0" standalone="no"?>
<!DOCTYPE svg PUBLIC "-//W3C//DTD SVG 20010904//EN"
 "http://www.w3.org/TR/2001/REC-SVG-20010904/DTD/svg10.dtd">
<svg version="1.0" xmlns="http://www.w3.org/2000/svg"
 width="1875.000000pt" height="1875.000000pt" viewBox="0 0 1875.000000 1875.000000"
 preserveAspectRatio="xMidYMid meet">
<metadata>
Created by potrace 1.14, written by Peter Selinger 2001-2017
</metadata>
<g transform="translate(0.000000,1875.000000) scale(0.100000,-0.100000)"
fill="#000000" stroke="none">
<path d="M13840 11970 l0 -510 -305 0 -305 0 0 -95 0 -95 205 0 205 0 -2 -312
-3 -313 -408 0 -407 0 0 -607 0 -608 605 0 605 0 2 818 3 817 203 3 202 2 0
100 0 100 105 0 105 0 0 200 0 200 -200 0 -200 0 0 -105 0 -105 -110 0 -110 0
0 510 0 510 -95 0 -95 0 0 -510z m-202 -1932 l-3 -413 -312 -3 -313 -2 0 415
0 415 315 0 315 0 -2 -412z"/>
<path d="M8110 11465 l0 -615 -405 0 -405 0 0 -100 0 -100 -100 0 -100 0 0
-610 0 -609 98 -3 97 -3 3 -102 3 -103 509 0 510 0 0 100 0 100 100 0 100 0 0
1330 0 1330 -205 0 -205 0 0 -615z m0 -1425 l0 -410 -305 0 -305 0 0 410 0
410 305 0 305 0 0 -410z"/>
<path d="M13020 11570 l0 -100 100 0 100 0 0 100 0 100 -100 0 -100 0 0 -100z"/>
<path d="M3830 11160 l0 -100 -105 0 -105 0 2 -817 3 -818 98 -3 97 -3 0 -99
0 -100 615 0 615 0 0 100 0 100 100 0 100 0 0 105 0 105 -610 0 -610 0 0 617
0 616 610 -6 610 -7 0 105 0 105 -100 0 -100 0 0 100 0 100 -610 0 -610 0 0
-100z"/>
<path d="M5664 10851 c-2 -2 -4 -49 -4 -103 l0 -98 -100 0 -100 0 0 -615 0
-615 100 0 100 0 0 -100 0 -100 510 0 509 0 3 103 3 102 103 3 102 3 0 609 0
609 -102 3 -103 3 -5 100 -5 100 -503 0 c-277 0 -506 -2 -508 -4z m816 -811
l0 -410 -305 0 -305 0 0 410 0 410 305 0 305 0 0 -410z"/>
<path d="M8934 10851 c-2 -2 -4 -49 -4 -103 l0 -98 -100 0 -100 0 0 -615 0
-615 100 0 100 0 0 -100 0 -100 615 0 615 0 0 205 0 205 -515 0 -516 0 3 103
3 102 408 3 407 2 0 100 0 100 105 0 105 0 0 305 0 305 -105 0 -105 0 0 103 0
102 -506 0 c-278 0 -508 -2 -510 -4z m816 -506 l0 -105 -305 0 -305 0 0 105 0
105 305 0 305 0 0 -105z"/>
<path d="M13837 8648 c-51 -127 -517 -1329 -517 -1333 0 -3 69 -5 153 -5 l152
0 257 658 c142 361 261 665 264 675 6 16 -6 17 -149 17 -115 0 -156 -3 -160
-12z"/>
<path d="M4158 7867 l-657 -442 -1 -217 0 -218 660 -440 c363 -242 662 -440
665 -440 3 0 5 114 5 253 l-1 252 -439 294 -439 295 47 32 c26 18 223 152 437
297 l390 264 3 257 c1 141 -1 256 -5 255 -5 -1 -304 -200 -665 -442z"/>
<path d="M13910 7291 l0 -168 428 -193 c235 -106 431 -196 435 -200 4 -4 -188
-94 -427 -201 l-435 -194 -1 -169 c0 -156 1 -168 18 -161 54 20 1289 570 1300
578 9 7 12 45 10 150 l-3 139 -655 294 c-360 161 -658 293 -662 294 -5 0 -8
-76 -8 -169z"/>
<path d="M5213 6875 c-33 -14 -53 -41 -53 -72 0 -27 180 -694 196 -725 21 -41
67 -61 131 -56 95 8 97 13 174 351 24 103 46 184 49 180 4 -5 28 -105 55 -223
57 -251 70 -283 121 -300 78 -26 157 4 183 68 21 55 181 672 181 701 0 17 -10
42 -24 58 -20 23 -32 28 -70 28 -79 0 -87 -14 -161 -300 -36 -138 -65 -254
-65 -259 0 -30 -15 25 -60 229 -64 294 -70 311 -120 326 -55 17 -107 4 -128
-31 -10 -16 -42 -139 -72 -274 -30 -136 -57 -243 -61 -239 -4 5 -32 109 -64
233 -69 275 -74 287 -119 305 -43 18 -52 18 -93 0z"/>
<path d="M6415 6871 c-11 -5 -29 -19 -40 -31 -19 -21 -20 -36 -20 -391 l0
-369 28 -27 c23 -23 36 -28 77 -28 41 0 54 5 77 28 l28 27 3 348 c2 225 -1
360 -7 383 -16 55 -88 83 -146 60z"/>
<path d="M7455 6871 c-11 -5 -29 -19 -40 -31 -19 -21 -20 -36 -20 -390 l0
-368 24 -26 c30 -32 78 -42 126 -26 56 19 65 47 65 210 l0 140 155 0 155 0 0
-149 c0 -134 2 -151 20 -174 25 -32 76 -43 124 -27 67 22 66 14 66 420 0 406
1 398 -66 420 -48 16 -99 5 -124 -27 -18 -23 -20 -40 -20 -159 l0 -134 -155 0
-155 0 0 125 c0 91 -4 134 -15 154 -21 42 -90 62 -140 42z"/>
<path d="M6700 6863 c-35 -13 -50 -37 -50 -79 0 -66 30 -84 136 -84 l83 0 3
-304 c3 -289 4 -306 24 -332 38 -52 123 -56 170 -9 l24 24 0 310 0 309 100 4
c54 1 104 8 110 14 18 18 27 68 18 101 -6 22 -17 34 -40 42 -32 11 -549 15
-578 4z"/>
</g>
</svg>
